<svg xmlns="http://www.w3.org/2000/svg" xmlns:xlink="http://www.w3.org/1999/xlink" fill="none" version="1.1" width="320" height="64" viewBox="0 0 320 64"><defs><clipPath id="master_svg0_1_0"><rect x="0" y="0" width="320" height="64" rx="0"/></clipPath><clipPath id="master_svg1_1_593"><path d="M141 0C141 0 141 0 141 0L321 0C321 0 321 0 321 0L321 64C321 64 321 64 321 64L141 64C141 64 141 64 141 64Z"/></clipPath></defs><g clip-path="url(#master_svg0_1_0)"><rect x="0" y="0" width="320" height="64" rx="0" fill="#414141" fill-opacity="1"/><g clip-path="url(#master_svg1_1_593)"><path d="M141 0C141 0 141 0 141 0L321 0C321 0 321 0 321 0L321 64C321 64 321 64 321 64L141 64C141 64 141 64 141 64Z" fill="#FFEE82" fill-opacity="1"/></g><g><g><path d="M158.464,50.96L148.384,12.08L157.696,12.08L163.744,37.904L164.032,37.904L171.04,12.08L180.64,12.08L188.128,37.904L188.416,37.904L194.464,12.08L203.776,12.08L193.216,50.96L184.096,50.96L175.984,25.424L175.696,25.424L167.584,50.96L158.464,50.96ZM217.696,51.632Q213.376,51.632,210.184,49.784Q206.992,47.936,205.288,44.504Q203.584,41.072,203.584,36.416Q203.584,31.808,205.288,28.376Q206.992,24.944,210.184,23.096Q213.376,21.248,217.696,21.248Q222.01600000000002,21.248,225.208,23.096Q228.4,24.944,230.10399999999998,28.376Q231.808,31.808,231.808,36.416Q231.808,41.072,230.10399999999998,44.504Q228.4,47.936,225.208,49.784Q222.01600000000002,51.632,217.696,51.632ZM217.696,43.472Q220.144,43.472,221.56,41.576Q222.976,39.68,222.976,36.416Q222.976,33.152,221.56,31.28Q220.144,29.408,217.696,29.408Q215.248,29.408,213.832,31.28Q212.416,33.152,212.416,36.416Q212.416,39.68,213.832,41.576Q215.248,43.472,217.696,43.472ZM236.512,50.96L236.03199999999998,21.92L245.152,21.92L245.152,27.152L245.44,27.152Q248.368,21.248,256.096,21.248L256.384,21.248L256.384,29.6L255.904,29.6Q250.096,29.6,247.624,31.4Q245.152,33.2,245.152,37.088L245.152,50.96L236.512,50.96ZM285.664,50.96L277.024,50.96L277.024,47.6L276.736,47.6Q275.584,49.52,273.808,50.576Q272.032,51.632,269.872,51.632Q266.224,51.632,263.488,49.76Q260.752,47.888,259.288,44.384Q257.824,40.88,257.824,36.176Q257.824,31.616,259.24,28.256Q260.656,24.896,263.272,23.072Q265.88800000000003,21.248,269.392,21.248Q271.79200000000003,21.248,273.664,22.304Q275.536,23.36,276.736,25.28L277.024,25.28L277.024,12.08L285.664,12.08L285.664,50.96ZM277.216,36.464Q277.216,33.152,275.776,31.232Q274.336,29.312,271.84000000000003,29.312Q269.44,29.312,268.048,31.232Q266.656,33.152,266.656,36.464Q266.656,39.728,268.096,41.648Q269.536,43.568,272.032,43.568Q274.432,43.568,275.824,41.648Q277.216,39.728,277.216,36.464ZM302.32,51.632Q297.712,51.632,294.376,49.496Q291.03999999999996,47.36,289.79200000000003,43.712L296.94399999999996,40.736Q297.616,42.56,299.00800000000004,43.592Q300.4,44.624,302.176,44.624Q303.808,44.624,304.624,44.096Q305.44,43.568,305.44,42.608Q305.44,41.648,304.408,41Q303.376,40.352,301.312,39.92Q296.08000000000004,38.72,293.152,36.44Q290.224,34.16,290.224,30.416Q290.224,27.632,291.688,25.568Q293.152,23.504,295.79200000000003,22.376Q298.432,21.248,301.93600000000004,21.248Q306.20799999999997,21.248,309.52,23.384Q312.832,25.52,314.176,29.168L307.072,32.096Q306.256,30.32,304.88800000000003,29.288Q303.52,28.256,302.08000000000004,28.256Q300.592,28.256,299.824,28.808Q299.05600000000004,29.36,299.05600000000004,30.272Q299.05600000000004,31.28,300.13599999999997,31.904Q301.216,32.528,304.192,33.152Q314.272,35.408,314.272,42.32Q314.272,45.008,312.712,47.12Q311.152,49.232,308.416,50.432Q305.68,51.632,302.32,51.632Z" fill="#414141" fill-opacity="1"/></g><g><path d="M18.712,50.96L10.072,50.96L10.072,12.08L17.992,12.08L30.184,30.32L30.472,30.32L42.664,12.08L50.584,12.08L50.584,50.96L41.944,50.96L41.944,28.64L41.656,28.64L33.688,40.064L26.968,40.064L19,28.832L18.712,28.832L18.712,50.96ZM64.024,51.632Q60.232,51.632,57.712,49.424Q55.192,47.216,55.192,43.28Q55.192,40.304,56.896,38Q58.6,35.696,61.744,34.424Q64.888,33.152,69.01599999999999,33.152L71.512,33.152L71.512,32.624Q71.512,30.56,70.384,29.48Q69.256,28.4,67.19200000000001,28.4Q64.21600000000001,28.4,61.816,31.376L56.2,27.2Q61,21.248,68.344,21.248Q71.848,21.248,74.512,22.64Q77.176,24.032,78.664,26.552Q80.152,29.072,80.152,32.336L80.152,50.96L71.512,50.96L71.512,47.744L71.224,47.744Q70.36,49.664,68.488,50.648Q66.616,51.632,64.024,51.632ZM66.80799999999999,44.624Q68.92,44.624,70.21600000000001,43.712Q71.512,42.8,71.512,41.264L71.512,40.16L69.88,40.16Q66.952,40.16,65.488,40.736Q64.024,41.312,64.024,42.704Q64.024,43.52,64.768,44.072Q65.512,44.624,66.80799999999999,44.624ZM85.72,50.96L85.24,21.92L94.36,21.92L94.36,27.152L94.648,27.152Q97.576,21.248,105.304,21.248L105.592,21.248L105.592,29.6L105.112,29.6Q99.304,29.6,96.832,31.4Q94.36,33.2,94.36,37.088L94.36,50.96L85.72,50.96ZM137.512,50.96L126.568,50.96L118.984,39.92L117.784,41.12L117.784,50.96L109.144,50.96L109.144,12.08L117.784,12.08L117.784,30.224L125.08,21.92L136.792,21.92L124.792,34.064L137.512,50.96Z" fill="#FFFFFF" fill-opacity="1"/></g></g></g></svg>